<?xml version="1.0" encoding="UTF-8" standalone="no"?>
<svg width="1492px" height="182px" viewBox="0 0 1492 182" version="1.1" xmlns="http://www.w3.org/2000/svg" xmlns:xlink="http://www.w3.org/1999/xlink" xmlns:sketch="http://www.bohemiancoding.com/sketch/ns">
    <!-- Generator: Sketch 3.3.2 (12043) - http://www.bohemiancoding.com/sketch -->
    <title>Slice 1</title>
    <desc>Created with Sketch.</desc>
    <defs>
        <path id="path-1" d="M0.06,0.137 L1491.64,0.137 L1491.64,182 L0.06,182 L0.06,0.137 Z"></path>
    </defs>
    <g id="Page-1" stroke="none" stroke-width="1" fill="none" fill-rule="evenodd" sketch:type="MSPage">
        <g id="RGB_CE_Horizontal_White" sketch:type="MSLayerGroup">
            <path d="M1479.25,54.913 C1473.56,54.913 1468.98,50.332 1468.98,44.647 C1468.98,38.964 1473.56,34.382 1479.25,34.382 C1484.93,34.382 1489.51,38.964 1489.51,44.647 C1489.51,50.332 1484.93,54.913 1479.25,54.913 L1479.25,54.913 Z M1479.25,32.287 C1472.41,32.287 1466.85,37.81 1466.85,44.647 C1466.85,51.486 1472.41,57.009 1479.25,57.009 C1486.09,57.009 1491.64,51.486 1491.64,44.647 C1491.64,37.81 1486.09,32.287 1479.25,32.287 L1479.25,32.287 Z" id="Fill-1" fill="#FFFFFF" sketch:type="MSShapeGroup"></path>
            <path d="M1476.61,43.988 L1476.61,40.147 L1479.36,40.147 C1481.06,40.147 1481.86,40.724 1481.86,42.095 C1481.86,43.522 1481.06,43.988 1479.33,43.988 L1476.61,43.988 L1476.61,43.988 Z M1481.17,45.747 C1483.06,45.197 1483.92,43.851 1483.92,42.095 C1483.92,39.818 1482.51,38.224 1479.33,38.224 L1474.58,38.224 L1474.58,50.961 L1476.61,50.961 L1476.61,45.965 L1479.08,45.965 C1479.08,46.157 1479.17,46.461 1479.25,46.57 L1482.07,50.961 L1484.54,50.961 L1481.17,45.747 L1481.17,45.747 Z" id="Fill-2" fill="#FFFFFF" sketch:type="MSShapeGroup"></path>
            <path d="M632.983,56.296 L610.964,56.296 L610.964,97.233 L632.835,97.233 C649.095,97.233 658.848,92.505 658.848,76.987 C658.848,61.468 649.095,56.296 632.983,56.296 L632.983,56.296 Z M659.291,152.51 L631.223,107.726 L610.964,107.726 L610.964,152.51 L599.436,152.51 L599.436,45.949 L632.835,45.949 C659.883,45.949 670.671,58.66 670.671,76.987 C670.671,92.505 662.69,103.444 643.772,106.987 L673.478,152.51 L659.291,152.51 L659.291,152.51 Z" id="Fill-3" fill="#FFFFFF" sketch:type="MSShapeGroup"></path>
            <path d="M720.399,152.51 L708.871,152.51 L736.262,108.059 L698.947,45.949 L711.657,45.949 L740.92,94.573 C741.954,96.347 742.547,98.267 742.841,99.451 C743.282,98.121 743.728,96.347 744.909,94.426 L774.023,45.949 L786.586,45.949 L720.399,152.51" id="Fill-4" fill="#FFFFFF" sketch:type="MSShapeGroup"></path>
            <path d="M995.645,152.51 L931.501,63.981 C931.942,65.458 932.535,67.529 932.535,70.484 L932.535,152.51 L921.006,152.51 L921.006,45.949 L931.942,45.949 L995.938,134.18 C995.346,131.52 995.052,130.634 995.052,128.418 L995.052,45.949 L1006.58,45.949 L1006.58,152.51 L995.645,152.51" id="Fill-5" fill="#FFFFFF" sketch:type="MSShapeGroup"></path>
            <path d="M1191.11,45.949 L1202.63,45.949 L1202.63,152.509 L1191.11,152.509 L1191.11,45.949 Z" id="Fill-6" fill="#FFFFFF" sketch:type="MSShapeGroup"></path>
            <path d="M1323.91,152.51 L1259.77,63.981 C1260.21,65.458 1260.81,67.529 1260.81,70.484 L1260.81,152.51 L1249.28,152.51 L1249.28,45.949 L1260.21,45.949 L1324.21,134.18 C1323.61,131.52 1323.32,130.634 1323.32,128.418 L1323.32,45.949 L1334.85,45.949 L1334.85,152.51 L1323.91,152.51" id="Fill-7" fill="#FFFFFF" sketch:type="MSShapeGroup"></path>
            <path d="M808.823,91.026 L881.694,91.026 L881.694,101.522 L808.823,101.522 L808.823,91.026 Z" id="Fill-8" fill="#FFFFFF" sketch:type="MSShapeGroup"></path>
            <path d="M819.483,56.296 L881.694,56.296 L881.694,45.949 L825.882,45.949 L819.483,56.296" id="Fill-9" fill="#FFFFFF" sketch:type="MSShapeGroup"></path>
            <path d="M808.823,142.162 L881.694,142.162 L881.694,152.51 L808.823,152.51 L808.823,142.162 Z" id="Fill-10" fill="#FFFFFF" sketch:type="MSShapeGroup"></path>
            <path d="M1380.42,91.026 L1453.29,91.026 L1453.29,101.522 L1380.42,101.522 L1380.42,91.026 Z" id="Fill-11" fill="#FFFFFF" sketch:type="MSShapeGroup"></path>
            <path d="M1380.42,45.949 L1453.29,45.949 L1453.29,56.295 L1380.42,56.295 L1380.42,45.949 Z" id="Fill-12" fill="#FFFFFF" sketch:type="MSShapeGroup"></path>
            <g id="Group-17">
                <mask id="mask-2" sketch:name="Clip 14" fill="white">
                    <use xlink:href="#path-1"></use>
                </mask>
                <g id="Clip-14"></g>
                <path d="M1380.42,142.162 L1453.29,142.162 L1453.29,152.51 L1380.42,152.51 L1380.42,142.162 Z" id="Fill-13" fill="#FFFFFF" sketch:type="MSShapeGroup" mask="url(#mask-2)"></path>
                <path d="M42.452,98.955 L42.431,98.955 C42.413,96.827 42.367,97.485 42.367,97.349 C42.367,88.613 95.24,21.334 184.291,0.599 C73.177,8.574 0,81.41 0,97.666 C0,97.801 0.021,96.827 0.033,98.955 L0.076,98.955 C1.683,114.903 54.537,172.647 172.329,182 C70.569,154.612 44.257,108.524 42.452,98.955" id="Fill-15" fill="#FFFFFF" sketch:type="MSShapeGroup" mask="url(#mask-2)"></path>
                <path d="M204.521,139.378 C180.947,139.378 161.84,120.266 161.84,96.697 C161.84,73.125 180.947,54.017 204.521,54.017 C228.089,54.017 247.198,73.125 247.198,96.697 C247.198,120.266 228.089,139.378 204.521,139.378 L204.521,139.378 Z M410.169,98.61 C409.55,78.459 339.095,6.447 217.981,0.137 C318.625,20.006 367.271,89.607 367.271,98.58 C367.34,99.617 366.84,100.681 366.521,101.305 C365.266,103.653 362.267,107.471 357.604,112.021 C315.268,146.887 270.386,150.19 258.034,150.4 C271.234,136.586 279.95,117.036 279.95,96.858 C279.95,55.442 246.39,21.581 204.571,21.581 C163.155,21.581 129.414,55.265 129.414,96.677 C129.414,184.909 242.668,193.335 313.043,170.195 C370.651,151.256 409.148,110.12 410.087,100.02 L410.135,100.02 C410.146,97.892 410.175,98.75 410.169,98.61 L410.169,98.61 Z" id="Fill-16" fill="#FFFFFF" sketch:type="MSShapeGroup" mask="url(#mask-2)"></path>
            </g>
            <path d="M1111.46,93.305 L1104.13,105.039 L1140.2,105.039 C1137.34,125.494 1119.73,141.295 1098.49,141.295 C1075.26,141.295 1056.37,122.395 1056.37,99.168 C1056.37,75.944 1075.26,57.048 1098.49,57.048 C1109.06,57.048 1119.11,60.963 1126.89,68.072 L1133.21,58.01 C1123.51,49.805 1111.29,45.317 1098.49,45.317 C1068.79,45.317 1044.64,69.476 1044.64,99.168 C1044.64,128.864 1068.79,153.025 1098.49,153.025 C1128.18,153.025 1152.34,128.864 1152.34,99.168 L1152.34,93.305 L1111.46,93.305" id="Fill-18" fill="#FFFFFF" sketch:type="MSShapeGroup"></path>
            <path d="M529.562,141.295 C506.335,141.295 487.438,122.395 487.438,99.168 C487.438,75.944 506.335,57.048 529.562,57.048 C542.437,57.048 554.275,62.728 562.319,72.69 L568.948,62.453 C558.824,51.633 544.504,45.317 529.562,45.317 C499.865,45.317 475.708,69.476 475.708,99.168 C475.708,128.864 499.865,153.025 529.562,153.025 C545.385,153.025 560.344,146.104 570.604,134.041 L561.668,126.442 C553.639,135.881 541.938,141.295 529.562,141.295" id="Fill-19" fill="#FFFFFF" sketch:type="MSShapeGroup"></path>
        </g>
    </g>
</svg>