<?xml version="1.0" encoding="utf-8"?>
<!-- Generator: Adobe Illustrator 19.0.0, SVG Export Plug-In . SVG Version: 6.00 Build 0)  -->
<!DOCTYPE svg PUBLIC "-//W3C//DTD SVG 1.1//EN" "http://www.w3.org/Graphics/SVG/1.1/DTD/svg11.dtd">
<svg xmlns="http://www.w3.org/2000/svg" viewBox="0 0 1077 203">
	<g fill="#FFF">
		<path d="M47.1,65.9 C46.5,69.4 45.4,73 44.3,76.9 C42.2,84.2 39.8,92.6 39.8,101.1 C39.8,109.6 42.2,118 44.3,125.3 C45.4,129.2 46.5,132.9 47.1,136.3 C47.6,139.2 46.3,141.9 43.7,143.2 C41.1,144.6 38.1,144.1 36,142 L3.5,109.6 C1.2,107.3 0,104.2 0,101.1 C0,98 1.2,95 3.5,92.6 L36.1,60 C38.2,57.9 41.2,57.5 43.8,58.8 C46.3,60.4 47.6,63.1 47.1,65.9 Z"/>
		<path d="M65.9,155.3 C69.4,155.9 73,157 76.9,158.1 C84.2,160.2 92.6,162.6 101.1,162.6 C109.6,162.6 118,160.2 125.3,158.1 C129.2,157 132.9,155.9 136.3,155.3 C139.2,154.8 141.9,156.1 143.2,158.7 C144.6,161.3 144.1,164.3 142,166.4 L109.4,199 C107.1,201.3 104,202.5 100.9,202.5 C97.8,202.5 94.8,201.3 92.4,199 L59.8,166.4 C57.7,164.3 57.3,161.3 58.6,158.7 C60.4,156.1 63.1,154.7 65.9,155.3 Z"/>
		<path d="M136.4,47.1 C132.9,46.5 129.3,45.4 125.4,44.3 C118.1,42.2 109.7,39.8 101.2,39.8 C92.7,39.8 84.3,42.2 77,44.3 C73.1,45.4 69.4,46.5 66,47.1 C63.1,47.6 60.4,46.3 59.1,43.7 C57.7,41.1 58.2,38.1 60.3,36 L92.7,3.5 C95,1.2 98.1,0 101.2,0 C104.3,0 107.3,1.2 109.7,3.5 L142.3,36.1 C144.4,38.2 144.8,41.2 143.5,43.8 C142,46.3 139.3,47.6 136.4,47.1 Z"/>
		<path d="M155.3,136.4 C155.9,132.9 157,129.3 158.1,125.4 C160.2,118.1 162.6,109.7 162.6,101.2 C162.6,92.7 160.2,84.3 158.1,77 C157,73.1 155.9,69.4 155.3,66 C154.8,63.1 156.1,60.4 158.7,59.1 C161.3,57.7 164.3,58.2 166.4,60.3 L199,92.9 C201.3,95.2 202.5,98.3 202.5,101.4 C202.5,104.5 201.3,107.5 199,109.9 L166.4,142.5 C164.3,144.6 161.3,145 158.7,143.7 C156.1,142 154.7,139.3 155.3,136.4 Z"/>
		<g transform="translate(314 54)">
			<polygon points="317.8 35.7 317.2 36.8 316.5 35.7 296.1 0 270.5 0 304.8 60.1 304.9 60.2 304.9 94.4 329.4 94.4 329.4 60.2 329.5 60.1 363.8 0 338.2 0"/>
			<polygon points="723.5 41.6 760.2 0 733.6 0 697.1 40.9 697.1 0 672.9 0 672.9 94.4 697.1 94.4 697.1 70.8 707.6 59.1 734 94.4 762.2 94.4"/>
			<polygon points="539.1 94.4 614.7 94.4 614.7 73.6 563.6 73.6 563.6 57.4 614.7 57.4 614.7 36.8 563.6 36.8 563.6 20.7 614.7 20.7 614.7 0 539.1 0"/>
			<polygon points="405.7 20.7 433.8 20.7 433.8 94.4 459.7 94.4 459.7 20.7 487.7 20.7 487.7 0 405.7 0"/>
			<path d="M.2 46.5L.2 48C.2 73.6 21 94.5 46.7 94.5L88.8 94.5 88.8 72.3 50.4 72.3C36.6 72.3 25.3 61.1 25.3 47.2 25.3 33.4 36.5 22.1 50.4 22.1L88.8 22.1 88.8 0 46.7 0C21 0 .2 20.8.2 46.5zM217 65.9L217.3 65.7C226.5 59 232 48.4 232 37L232 35.2C232 15.8 216.2 0 196.8 0L148.8 0 148.8 94.4 173.3 94.4 173.3 72.3 195 72.3 209.4 94.4 235.4 94.4 217 66.5 217 65.9zM209.1 37C209.1 45 202.6 51.5 194.6 51.5L173.4 51.5 173.4 20.7 194.6 20.7C202.6 20.7 209.1 27.2 209.1 35.2L209.1 37z"/>
		</g>
	</g>
</svg>
